<svg xmlns="http://www.w3.org/2000/svg" style="isolation:isolate" viewBox="681 382 110 56.4" width="110" height="56.4">
  <path d="M698.5 388c-.2-1.7-1.7-2.8-3-1.7-2 1.7 0 5.6 2.1 4 .6-.3 1-1.1 1-1.9v-.4m92.4 31c0-1.2-1-2.3-2.3-3.2-1.2-1-2.7-1.8-4-2.7l-.8-.6c-.3-.2 1.9-3.1 2-3.4.8-1.3 1.5-2.5 2.1-3.9.6-1.3.7-2.2-.2-3h-.2c-2-1.4-4.4.8-5.3 1.9a11 11 0 0 0-3 6.7c-.1 1.1.4 2 1.1 3l-2 2.6c-1.2 1.4-2.3 3-3.8 4.2-.3-.5 0-1.5 0-2 .5-1.8 1.5-3.5 2.2-5.3l2-5c.6-1.8 2.6-6.3-1.7-6.3-1.7 0-3.3.8-4.6 1.7.9-1.3 1.6-2.6 2.3-3.9 1.4-2.6 2.6-5.4 3.5-8.1.3-.9.6-1.8.6-2.6 0-.9-1.7-2.3-3.4-1.6-1.7.7-2.2 2.5-2.8 3.7a173 173 0 0 0-4.3 11.4 16.6 16.6 0 0 1-4.9 4.9c-.3-2.4-1.2-6.7-6-5.9a7.8 7.8 0 0 0-4.8 3c-1 1.4-1.7 3-2 4.4a5.7 5.7 0 0 0 0 3.2 12 12 0 0 0-1.8 5.2l-1.5 1.4c-.5.3-1 .6-1.6.7-.5.1-.6-1.3-.6-1.7l.1-1.6.5-1.5 1.1-2.9c1.1-2.6 2.5-5 4-7.4.4-.7.4-1.4-.4-2-.7-.5-1.9-.6-2.7-.2a31.4 31.4 0 0 1-3.9 1.7l-.8.3c.3-1.3.7-3-1.1-3.8-1.9-.8-3.7.4-4.4 1.5-.7 1.2-.9 2-.8 3 0 1 .3 1.5 1 2.1a57.7 57.7 0 0 1-4 9.9h-.1a35.5 35.5 0 0 1-1.2 1.7v-1l-.1-1.2c-.1-4.3 1-8.8 2-13a139 139 0 0 1 2.8-9.2l1-3 .4-1.6.1-.2c.3-.9-.4-1.8-1.6-2-1.3-.3-2.6.2-3 1.1a201.5 201.5 0 0 0-4.2 13.9 7 7 0 0 0-2.8-.6c-1 0-3.5.8-4.7 1.8-1.1 1-2.3 2.6-3.1 4-.8 1.5-1 2.2-1.4 3.3-.6 2.2-.9 4.4-.5 6.6 0 .4-.7 1-1 1.2-.2.1-1.5.8-1.9.4-.3-.5-.3-1-.4-1.4V416l.2-2a98 98 0 0 1 1.2-7.7l1-5.2.5-2.8 1-5 7.3-1.3c1.4-.2 2.7-.6 4-.9 2.5-.5 1.4-3.3-1.1-2.8l-2.8.5-6.6 1.3 1-3.8.6-2c.2-.6.4-1 .1-1.6-.3-.5-.7-.7-1.2-.8-.5 0-2.1.3-2.3 1l-2.3 8-5.2 1-5.6 1-.6.1-.6-.2h-.8c-.3.1-1.3.7-1.1 1.5.1.7 1.4 1 2.3 1l4.5-.4 6.3-1-1 3.7c-1 3.9-2 7.8-2.7 11.7v.5l-.8 1.3-1.1 1.7c-1.8 2.5-4 5.4-6.9 6.8-1 .5-2 .4-2.7-.7l-.4-1.5c0-.5-.2-.7 0-.8l3.2-2.2c1.9-1.3 3.7-2.6 5.2-4.1 1.5-1.6 3.4-4.2 2.3-6.3-1-2.1-4.2-2.6-6.7-1.5a13.9 13.9 0 0 0-5.6 5.6 17.2 17.2 0 0 0-2.3 7.7L693 417l-.9.6c.6-5.8 1.7-11.5 3.4-17.1.5-1.8 1.3-3.6 1.5-5.4.2-1.7-3.3-1.9-4.2-.5-.8 1.4-.7 2.5-1.1 3.6a43.5 43.5 0 0 1-6.9 12.4c-1 1.4-2.6 2.7-3.5 4-1 1.5 1.4 2.3 2.5 1.2l4.8-5a96 96 0 0 0-1.1 10c-.6.3-1.4.7-2.1.7a5 5 0 0 0-1.4-2.4c-.7-.7-.7-.5-1.2-.4-.5.1-1.4 1.5-1 2.4a3 3 0 0 0 1.5 1.7l.2.8a68 68 0 0 1 1 4.7l1 4.7c.3 1.6.4 2.8 1.1 4.2.4.7 1.7 1 2.5.4s.8-1 1-1.6a31.2 31.2 0 0 0 1.1-7.6l.6-7.5 3-2a5 5 0 0 0 3 3.4c1.8.7 4.3.5 6.1-.4a18.8 18.8 0 0 0 5.4-4.5c0 1.1.2 2.2.9 3.2 1.2 2 4 2.6 6.9 2 .9-.2 1.7-.6 2.4-1 .6.5 1.4.9 2.4 1 2.7.6 4.9-.7 6.2-2.2l.6 1c.8.8 2 1.5 3.5 1.5s3.3-1 4.3-2.1c1-1 1.8-2.5 2.4-3.7a40 40 0 0 0 3.4-9.2l.4-.1 1.8-.5-1.5 3.1c-.9 1.7-1.6 3.5-2 5.3-.4 1.7-.7 4.8 1.8 6.3 2.4 1.5 5.2.6 7.2-.8 1.3 1.3 3.6 1.8 5.8 1.5 4.5-.6 6.3-4.6 7.1-7.3.4-1.3.6-2.6.7-3.8 0 0 2.4-1.5 2.8-1.5l-8.7 26.1c-.3 1 .3 2 1.4 2.2 1 .2 2-1.2 2.5-2.4l5.2-14.3c1.7-4.7 2.6-9.6 5.7-13 .8-1 1.4-1.6 2.5-2.3l-.4 1a54.2 54.2 0 0 0-3.1 10.3c-.2 1.4-.5 3.5 1.1 4.5 1.7 1 3 .8 4 0s1.9-1.9 2.6-2.8l3-4.2 2.2 1.5 1.9 1.3c.5.5.7.6.7 1s-.2.7-.3.9c0 0-.3.2-1 .2a1 1 0 0 1-.6-.2c.4-.7.1-1.5-.8-2-1-.3-2.4-.1-3 .6-.4.8-.7 1.7-.2 2.5a4 4 0 0 0 2.8 2c1.3.2 3.2.1 4.5-.4 1.4-.5 2.8-2 2.7-3.5m-5.9-14l.2-.3-.5 1.7c-.5 1.2-1.1 2.4-1.9 3.6a10 10 0 0 1 2.2-5m-10.6 15.5c0-.1 0-.2 0 0m-16-10.3a40 40 0 0 1-2.7 1.2l-.5.2c-.2 0-.2 0-.3-.2-.3-1 .2-2.3.6-3.2a7 7 0 0 1 2.4-3.1v.1c.7 1.5.6 3 .6 4.6v.4m-.7 4.6l-1 2.5c-.5.8-1 1.6-1.7 2.2-.3.1-.6.3-1 .3-1.2 0-1.7-1.9-1.7-2.9v-1.3c0-.4.4-1.2.4-1.2a7 7 0 0 0 4.9-.2h.2l-.1.6m-29.6-6.3c-.4 1.9-1.2 3.8-1.9 5.6a20.7 20.7 0 0 1-2.3 4.5c-.4.5-1.1 1.4-1.7.6a2 2 0 0 1-.3-.7 13.2 13.2 0 0 1 1.7-10.4 8.5 8.5 0 0 1 2.4-2.9c.3-.2.7-.4 1-.4 1 0 1.2 1.2 1.3 1.9v.5l-.2 1.3m-41.2 17.2v3.2a133.6 133.6 0 0 0-1.5-5.8l1.6-.3-.1 3M791 419zm-91-9.4c.4-1 1-2 1.9-2.8a7 7 0 0 1 2.9-2.1l.3-.1.4.3v.2c0 .9-.3 1.6-.8 2.3a24.8 24.8 0 0 1-6 5.4l.2-.8 1-2.4z" fill-rule="evenodd" fill="#FFF"/>
</svg>
