<svg xmlns="http://www.w3.org/2000/svg" viewBox="0 0 357 250">
  <defs>
    <linearGradient id="a" x1="100.03%" x2=".03%" y1="50.01%" y2="50.01%">
      <stop offset="0%" stop-color="#2A2C77"/>
      <stop offset="30.27%" stop-color="#232565"/>
      <stop offset="90.46%" stop-color="#111338"/>
      <stop offset="100%" stop-color="#0E1030"/>
    </linearGradient>
    <filter id="b" width="112%" height="112.4%" x="-6%" y="-6.2%" filterUnits="objectBoundingBox">
      <feGaussianBlur in="SourceGraphic" stdDeviation="10 0"/>
    </filter>
    <linearGradient id="c" x1="103.96%" x2="-40.55%" y1="25.45%" y2="87.29%">
      <stop offset="0%" stop-color="#363794"/>
      <stop offset="28.85%" stop-color="#374C94"/>
      <stop offset="41.02%" stop-color="#385794"/>
      <stop offset="55.73%" stop-color="#425F96"/>
      <stop offset="81.04%" stop-color="#5E739D"/>
      <stop offset="99.75%" stop-color="#7785A3"/>
    </linearGradient>
    <filter id="d" width="475%" height="236.4%" x="-187.5%" y="-68.2%" filterUnits="objectBoundingBox">
      <feGaussianBlur in="SourceGraphic" stdDeviation="10 0"/>
    </filter>
    <linearGradient id="e" x1="95.22%" x2="41.08%" y1="-4.24%" y2="57.6%">
      <stop offset=".12%" stop-color="#0E1030"/>
      <stop offset="51.06%" stop-color="#191A4C"/>
      <stop offset="100%" stop-color="#25266A"/>
    </linearGradient>
    <filter id="f" width="240.5%" height="236.4%" x="-70.3%" y="-68.2%" filterUnits="objectBoundingBox">
      <feGaussianBlur in="SourceGraphic" stdDeviation="10 0"/>
    </filter>
    <linearGradient id="g" x1="-4.96%" x2="97.99%" y1="38.57%" y2="96.28%">
      <stop offset="0%" stop-color="#1D1F57"/>
      <stop offset="97%" stop-color="#0E1031"/>
      <stop offset="100%" stop-color="#0E1030"/>
    </linearGradient>
    <filter id="h" width="155.7%" height="216.5%" x="-27.9%" y="-58.3%" filterUnits="objectBoundingBox">
      <feGaussianBlur in="SourceGraphic" stdDeviation="10 0"/>
    </filter>
    <linearGradient id="i" x1="8.91%" x2="91.05%" y1="25.55%" y2="74.7%">
      <stop offset="0%" stop-color="#363794"/>
      <stop offset="28.85%" stop-color="#374C94"/>
      <stop offset="41.02%" stop-color="#385794"/>
      <stop offset="55.73%" stop-color="#425F96"/>
      <stop offset="81.04%" stop-color="#5E739D"/>
      <stop offset="99.75%" stop-color="#7785A3"/>
    </linearGradient>
    <filter id="j" width="138.3%" height="185.6%" x="-19.2%" y="-42.8%" filterUnits="objectBoundingBox">
      <feGaussianBlur in="SourceGraphic" stdDeviation="10 0"/>
    </filter>
    <linearGradient id="k" x1="26.07%" x2="55.62%" y1="6.63%" y2="88.96%">
      <stop offset="0%" stop-color="#2C2D7A"/>
      <stop offset="4.95%" stop-color="#2D2E7C"/>
      <stop offset="60.01%" stop-color="#34358E"/>
      <stop offset="100%" stop-color="#363794"/>
    </linearGradient>
    <filter id="l" width="172%" height="153.7%" x="-36%" y="-26.9%" filterUnits="objectBoundingBox">
      <feGaussianBlur in="SourceGraphic" stdDeviation="10 0"/>
    </filter>
  </defs>
  <g fill="none">
    <path fill="url(#a)" d="M392.6 430.2c9.7-7.2 18.8-15.2 27.4-23.8 22.2-22.3 40.4-48.5 54-76.8 13.5-28.1 22.6-58.6 25.6-89.7 3-30.4.2-61.5-9.8-90.4-6.9-20.1-17.3-39-30.5-55.6-81-102-247.8-125.8-354.6-47.1-111 81.8-138.3 246.1-57.5 355.7 20 27.1 47.2 48.1 77.9 61.6 30.8 13.6 64.7 19.9 98.3 20.1 34.3.2 68.6-5.7 100.8-17.4 24.6-8.8 47.6-21 68.4-36.6z" filter="url(#b)" transform="translate(-172 -251)"/>
    <path fill="url(#c)" d="M483.9.9l12.7 38.2-16 5.8z" filter="url(#d)" transform="translate(-167 18)"/>
    <path fill="url(#e)" d="M441.2 2L483.9.9l-3.3 44z" filter="url(#f)" transform="translate(-167 18)"/>
    <path fill="url(#g)" d="M291 120.4l107.7 41.4-73.4 10.1z" filter="url(#h)" transform="translate(-167 18)"/>
    <path fill="url(#i)" d="M398.7 161.8l-156.5 70.1 83.1-60z" filter="url(#j)" transform="translate(-167 18)"/>
    <path fill="url(#k)" d="M242 231.9l49-111.7 34.3 51.7z" filter="url(#l)" transform="translate(-167 18)"/>
  </g>
</svg>
