<svg xmlns="http://www.w3.org/2000/svg" width="137" height="124" viewBox="985 232 137 124" style="isolation:isolate"><linearGradient id="a" x1="-.2%" x2="99.9%" y1="50%" y2="50%"><stop offset="0%" stop-color="#292a73"/><stop offset="48.2%" stop-color="#2f3d81"/><stop offset="100%" stop-color="#385794"/></linearGradient><path fill="url(#a)" d="M1090.8 315.3c1.5-1.9 2.7-3.9 4-6a55 55 0 0 0 6.1-35.3 41 41 0 0 0-6.6-16.5 35.7 35.7 0 0 0-8.6-8.8 52 52 0 0 0-68.8 9.9 50.7 50.7 0 0 0 8 69.7 38 38 0 0 0 17.8 7.5c6.5.9 13.2.3 19.5-1.5a59 59 0 0 0 18-8.5c4-3 7.5-6.5 10.6-10.5z"/><linearGradient id="b" x1="0%" x2="99.7%" y1="49.9%" y2="49.9%"><stop offset="0%" stop-color="#363794"/><stop offset="10.8%" stop-color="#374894"/><stop offset="22.4%" stop-color="#385394"/><stop offset="35.4%" stop-color="#385794"/><stop offset="100%" stop-color="#7785a3"/></linearGradient><path fill="url(#b)" d="M1110.3 328.9c-15.6 1.4-43.7-8.9-53.2-12.9-22-9.6-44.3-21.3-60.7-35.6-7.6-6.6-13.6-13-10.6-17.3 1.6-2.3 8.6-1 25 5l-.7 2.1c-14-3.9-19.7-5.5-20.6-5.1.3.7 1.4 2 7.6 7.2a297 297 0 0 0 65.5 37.5c27.9 12.2 45.3 16.1 49.2 14.9a81.3 81.3 0 0 0-17.8-14.9c-1-.6 1.4-2 .7-2-.6 0 21.7 11.4 21.3 17.4 0 1.3-.9 2.4-2.1 3-1.3.7-2.2.7-3.6.7z"/></svg>