<svg xmlns="http://www.w3.org/2000/svg" style="isolation:isolate" width="89" height="151">
  <defs>
    <clipPath id="a">
      <path d="M0 0h89v151H0z"/>
    </clipPath>
  </defs>
  <g clip-path="url(#a)">
    <path d="M58.98 122.87a2.75 2.75 0 0 1-2.73 2.75l-24.82.1a2.73 2.73 0 0 1-2.74-2.74 2.74 2.74 0 0 1 2.74-2.76l24.82-.09a2.73 2.73 0 0 1 2.73 2.74z" fill="#A09FB0"/>
    <path d="M56.26 120.8l-24.83.1a2.1 2.1 0 0 0-2.07 2.08c0 1.15.92 2.07 2.06 2.07v.66-.66l24.83-.1a2.1 2.1 0 0 0 2.07-2.09c0-1.13-.92-2.06-2.06-2.06zm-24.84 5.58a3.4 3.4 0 0 1 0-6.81l24.83-.1a3.41 3.41 0 1 1 0 6.82l-24.83.1" fill="#1D4557"/>
    <path d="M44.47.93S9.84 24.29 10.57 68.89c.73 44.58 13.82 52.54 13.82 52.54l19.95-.1 19.92-.1s13.1-8.1 13.94-52.7C79.03 23.94 44.48.94 44.48.94z" fill="#A09FB0"/>
    <path d="M68.02 27.79C58.09 9.99 44.47.93 44.47.93s-13.65 9.21-23.63 27.1a83.78 83.78 0 0 0-2.25 4.33c10.1 4.36 28.94 9.27 51.79-.05a79.47 79.47 0 0 0-2.36-4.52" fill="#A09FB0"/>
    <path d="M19.5 32.02a64.29 64.29 0 0 0 24.64 4.93c8.46 0 16.98-1.67 25.32-5a83.7 83.7 0 0 0-2.02-3.84C58.61 12.29 46.71 3.34 44.47 1.75c-2.25 1.6-14.18 10.7-23.05 26.6a83.45 83.45 0 0 0-1.92 3.67zm24.64 6.26a65.55 65.55 0 0 1-25.82-5.31l-.63-.27.3-.63a85.2 85.2 0 0 1 2.28-4.36C30.2 9.88 43.96.47 44.1.38l.37-.25.36.25c.14.1 13.88 9.36 23.78 27.09.83 1.5 1.63 3.02 2.36 4.55l.3.64-.65.26a69.88 69.88 0 0 1-26.48 5.36" fill="#1D4557"/>
    <path d="M15.4 96.21L1.7 113.04s-2.36 1.9 0 7.1l13.68 29.97s.85.47 1.33-.72c0 0-3.14-25.6 10.7-28.24" fill="#A09FB0"/>
    <path d="M15.78 150.87c-.24 0-.49-.06-.71-.17l-.2-.11-.1-.2L1.12 120.4c-2.36-5.18-.3-7.44.13-7.83L14.88 95.8l1.03.83-13.78 16.93c-.07.07-1.9 1.71.18 6.3l13.53 29.66a.68.68 0 0 0 .2-.23c-.3-2.55-2.56-26.15 11.26-28.8l.24 1.3c-13.07 2.52-10.2 27.27-10.16 27.52l.02.17-.06.16c-.3.74-.74 1.03-1.06 1.14a2.1 2.1 0 0 1-.5.09" fill="#1D4557"/>
    <path d="M73.61 96l13.68 16.73s2.36 1.9 0 7.1L73.6 149.9s-.86.48-1.33-.7c0 0 3.15-25.62-10.69-28.18" fill="#A09FB0"/>
    <path d="M73.2 150.66c-.16 0-.32-.02-.5-.08-.32-.12-.76-.4-1.05-1.14l-.07-.16.03-.17c.03-.25 2.91-25.02-10.16-27.43l.25-1.3c13.82 2.54 11.54 26.16 11.26 28.71.06.13.13.2.18.23 1.3-2.86 11.34-24.9 13.54-29.77 2.1-4.6.27-6.24.19-6.3L73.1 96.42l1.03-.83 13.65 16.69c.4.39 2.47 2.64.11 7.82l-13.68 30.08-.1.2-.19.1c-.04.02-.34.18-.72.18" fill="#1D4557"/>
    <path d="M53.55 59.13a18.55 18.55 0 0 0-9.04-2.3 18.76 18.76 0 0 0-18.64 18.73c0 6.77 3.65 13 9.56 16.3a18.6 18.6 0 0 0 22.24-3.21 18.67 18.67 0 0 0-4.12-29.52" fill="#FFF"/>
    <path d="M44.57 57.48c-9.96.05-18 8.13-18.02 18.09a17.92 17.92 0 0 0 17.9 17.95v.65l.05-.66a17.89 17.89 0 0 0 12.7-5.32 17.97 17.97 0 0 0 5.27-12.75 17.89 17.89 0 0 0-17.9-17.95zm-.12 37.35a19.21 19.21 0 0 1-19.24-19.26A19.42 19.42 0 0 1 44.5 56.16c3.34 0 6.55.83 9.38 2.4a19.3 19.3 0 0 1 9.91 16.87c0 5.17-2 10.03-5.65 13.7a19.22 19.22 0 0 1-13.64 5.71h-.05" fill="#1D4557"/>
    <path d="M74.2 88.67l-.77.4c-.6.32-1.18.62-1.76.9l-.85.42c-.6.29-1.2.55-1.8.81l-.7.3c-.81.36-1.62.69-2.41 1l-.42.14c-.67.25-1.34.5-2 .72l-.83.26a58.5 58.5 0 0 1-4.1 1.16l-.7.18c-.77.18-1.5.34-2.25.48l-.72.13-1.54.27-2.26.3-.9.1c-.5.04-.98.1-1.47.12l-.72.06c-.95.06-1.91.1-2.87.1-15.24.22-27.23-5.5-33.2-9.08a124.85 124.85 0 0 0 1.62 10.94c3.89 19.03 11.26 23.06 11.26 23.06l19.44-.08 19.59-.07s7.34-4.08 11.25-23.09a98.65 98.65 0 0 0 1.64-10.94c-.84.5-1.7.97-2.53 1.41z" fill="#A09FB0"/>
    <path d="M44.47 1.75c-3.7 2.68-33.9 25.9-33.24 67.12.68 41.04 11.97 50.85 13.37 51.9l39.45-.2c1.38-1.06 12.72-10.96 13.49-52.05C78.3 27.3 48.18 4.4 44.47 1.75zM24.2 122.1l-.16-.1c-.55-.33-13.41-8.67-14.14-53.1C9.18 24.46 43.74.62 44.1.38l.37-.25.36.25c.35.23 34.86 23.72 34.03 68.17-.82 44.44-13.7 52.9-14.24 53.24l-.17.1-40.24.2" fill="#1D4557"/>
  </g>
</svg>
