<svg xmlns="http://www.w3.org/2000/svg" width="52" height="52" viewBox="0 0 52 52">
	<defs>
		<linearGradient id="a" x1="-.17%" x2="99.93%" y1="50.01%" y2="50.01%">
			<stop offset="0%" stop-color="#292A73"/>
			<stop offset="48.2%" stop-color="#2F3D81"/>
			<stop offset="100%" stop-color="#385794"/>
		</linearGradient>
	</defs>
	<path fill="url(#a)" d="M45.9 40.7a27.85 27.85 0 0 0 2.1-3.2 29.93 29.93 0 0 0 3.33-9.31c.58-3.25.63-6.55.05-9.8A23.46 23.46 0 0 0 47.8 9.5a19.78 19.78 0 0 0-4.7-4.76c-11.19-8-28.88-5.68-37.48 5.34-8.94 11.45-7.04 28.82 4.35 37.65a20.52 20.52 0 0 0 9.73 4.03c3.51.48 7.18.2 10.6-.78a31.15 31.15 0 0 0 9.78-4.6 30.6 30.6 0 0 0 5.81-5.68z"/>
</svg>
